<?xml version="1.0" encoding="UTF-8"?>
<svg xmlns:xlink="http://www.w3.org/1999/xlink" id="Layer_1" xmlns="http://www.w3.org/2000/svg"
     viewBox="0 0 517.93 199.91">
    <defs>
        <style>
            .cls-1{fill:url(#linear-gradient-2);}.cls-2{fill:url(#linear-gradient-6);}.cls-3{fill:url(#linear-gradient-10);}.cls-4{fill:url(#linear-gradient-5);}.cls-5{fill:url(#linear-gradient-7);}.cls-6{fill:url(#linear-gradient-9);}.cls-7{fill:url(#linear-gradient-3);}.cls-8{fill:url(#linear-gradient);}.cls-9{fill:url(#linear-gradient-4);}.cls-10{fill:url(#linear-gradient-8);}
        </style>
        <linearGradient id="linear-gradient" x1="323.31" y1="127.92" x2="335.61" y2="127.92"
                        gradientUnits="userSpaceOnUse">
            <stop offset="0" stop-color="#662d91"/>
            <stop offset=".38" stop-color="#602d91"/>
            <stop offset=".88" stop-color="#502d91"/>
            <stop offset="1" stop-color="#4b2d91"/>
        </linearGradient>
        <linearGradient id="linear-gradient-2" x1="306.17" y1="168.36" x2="517.93" y2="168.36"
                        xlink:href="#linear-gradient"/>
        <linearGradient id="linear-gradient-3" x1="387.66" x2="399.96" xlink:href="#linear-gradient"/>
        <linearGradient id="linear-gradient-4" x1="305.51" y1="66.12" x2="350.93" y2="66.12"
                        xlink:href="#linear-gradient"/>
        <linearGradient id="linear-gradient-5" x1="356.73" y1="61.83" x2="495.91" y2="61.83"
                        xlink:href="#linear-gradient"/>
        <linearGradient id="linear-gradient-6" x1="378.83" y1="57.18" x2="405.58" y2="57.18"
                        xlink:href="#linear-gradient"/>
        <linearGradient id="linear-gradient-7" x1="499.63" y1="15.08" x2="517.93" y2="15.08"
                        xlink:href="#linear-gradient"/>
        <linearGradient id="linear-gradient-8" x1="502.72" y1="61.82" x2="514.61" y2="61.82"
                        xlink:href="#linear-gradient"/>
        <linearGradient id="linear-gradient-9" x1="57.61" y1="18.2" x2="257.92" y2="18.2"
                        gradientTransform="translate(0 150.36) scale(1 -1)" xlink:href="#linear-gradient"/>
        <linearGradient id="linear-gradient-10" x1="0" y1="92.14" x2="253.01" y2="92.14"
                        gradientTransform="translate(0 150.36) scale(1 -1)" xlink:href="#linear-gradient"/>
    </defs>
    <g>
        <g>
            <path class="cls-8"
                  d="M334.88,122.48c-.48-.52-1.08-.78-1.8-.78h-7.24c-.73,0-1.32,.26-1.8,.78s-.73,1.15-.73,1.88v7.24c0,.65,.24,1.23,.73,1.75s1.08,.78,1.8,.78h7.24c.73,0,1.32-.26,1.8-.78,.48-.52,.73-1.1,.73-1.75v-7.24c0-.73-.24-1.34-.73-1.88Z"/>
            <path class="cls-1"
                  d="M516.08,151.85c-1.21-2.62-3.01-4.97-5.43-7.07l-6.4-5.19c-2.1-1.84-4.35-2.77-6.75-2.77-3.39,0-6.57,1.86-9.55,5.54l-15.82,19.31c-1.45,1.69-3.5,2.53-6.16,2.53h-4.87v.11h-52.44c-5.54,0-8.34-2.66-8.34-7.96,0-2.57,.6-4.37,1.81-5.38,1.21-1,3.09-1.51,5.67-1.51h4.6c.65,0,1.21-.28,1.69-.84,.48-.56,.73-1.21,.73-1.94v-6.62c0-.73-.26-1.34-.78-1.88-.52-.52-1.15-.78-1.88-.78h-36.71c-.73,0-1.34,.26-1.88,.78-.52,.52-.78,1.15-.78,1.88v6.64c0,.73,.22,1.38,.67,1.94,.45,.56,.99,.84,1.64,.84h4.6c2.57,0,4.46,.5,5.67,1.51,1.21,1,1.8,2.83,1.8,5.49,0,5.23-2.73,7.85-8.21,7.85h-36.7c-4.35,0-6.51-2.38-6.51-7.13v-13.88c0-.73-.22-1.34-.67-1.88-.45-.52-1.02-.78-1.75-.78h-7.24c-.65,.07-1.19,.35-1.64,.84-.45,.48-.67,1.08-.67,1.8v33.08c0,3.22-1.58,5.95-4.76,8.21-3.18,2.25-7.22,3.42-12.13,3.5-.48,0-.73,.2-.73,.6v.24l1.32,10.14c0,.24,.09,.45,.3,.6,.21,.17,.43,.24,.67,.24,5.4,0,10.16-1.06,14.31-3.2,4.15-2.14,7.35-5.04,9.6-8.69,2.25-3.67,3.39-7.8,3.39-12.37,1.94,.48,4.11,.73,6.51,.73h36.7c3.39,0,6.23-.28,8.58-.84,2.33-.56,4.43-1.94,6.29-4.11,1.77,2.18,3.85,3.54,6.21,4.11,2.38,.56,5.25,.84,8.63,.84h8.51v-.11h48.8c4.11,0,7.14-.3,9.12-.91,1.97-.6,3.83-1.67,5.62-3.2l3.98,3.39c3.63,3.29,7.89,4.95,12.8,4.95,2.9,0,5.69-.65,8.39-1.94,2.7-1.28,5.04-3.14,7.07-5.54,3.29-4.02,4.95-8.37,4.95-13.04-.04-2.77-.63-5.51-1.84-8.11Zm-12.45,13.45c-1.86,2.01-3.91,3.01-6.16,3.01-1.86,0-3.46-.63-4.84-1.94l-5.56-4.71,10.14-12.08,5.67,4.6c1.77,1.53,2.66,3.5,2.66,5.92,.02,2.1-.63,3.83-1.92,5.19Z"/>
            <path class="cls-7"
                  d="M399.23,122.48c-.48-.52-1.08-.78-1.8-.78h-7.24c-.73,0-1.32,.26-1.8,.78s-.73,1.15-.73,1.88v7.24c0,.65,.24,1.23,.73,1.75s1.08,.78,1.8,.78h7.24c.73,0,1.32-.26,1.8-.78,.48-.52,.73-1.1,.73-1.75v-7.24c0-.73-.24-1.34-.73-1.88Z"/>
        </g>
        <g>
            <path class="cls-9"
                  d="M350.93,71c0,1.21-.04,2.14-.13,2.77-.24,2.66-1.25,5.34-3.02,8.02-1.78,2.7-4.1,4.91-6.96,6.64-2.86,1.73-5.82,2.6-8.92,2.6h-9.03c-3.26,0-6.08-.56-8.5-1.69s-5.06-2.94-7.91-5.43c-.64-.65-.95-1.32-.95-2.05,0-.63,.2-1.17,.59-1.56l4.05-4.95c.64-.65,1.3-.97,2.01-.97s1.3,.24,1.78,.73c1.67,1.38,3.1,2.36,4.29,2.96,1.19,.6,2.73,.91,4.63,.91h8.08c2.45,0,4.45-.8,6.01-2.42,1.54-1.6,2.33-3.5,2.33-5.67,0-1.69-.48-3.18-1.43-4.47l-11.76-17.14c-.31-.41-.48-.93-.48-1.56,0-.97,.35-1.69,1.06-2.18l5.35-3.87c.4-.32,.88-.48,1.43-.48,.95,0,1.7,.41,2.25,1.21l8.68,12.67c2.53,3.78,4.25,6.74,5.17,8.88,.93,2.12,1.39,4.47,1.39,7.05Z"/>
            <path class="cls-4"
                  d="M495.91,71.84c0,3.54-.68,6.81-2.01,9.79-1.36,2.98-3.33,5.32-5.93,7-2.45,1.6-5.35,2.42-8.68,2.42-1.98,0-3.92-.35-5.82-1.08s-3.52-1.69-4.87-2.9c-1.26,1.21-2.89,2.18-4.87,2.9-1.98,.73-3.92,1.08-5.82,1.08-2.05,0-4.05-.35-5.93-1.08-1.9-.73-3.54-1.73-4.87-3.01-1.43,1.38-3.15,2.4-5.17,3.07-2.01,.69-4.1,1.02-6.25,1.02h-8.92c-2.14,0-4.07-.32-5.77-.97s-3.43-1.66-5.17-3.01c-1.83,1.45-3.55,2.47-5.17,3.09-1.63,.6-3.63,.91-6.01,.91h-30.79c-3.17,0-6.06-.78-8.68-2.36-2.62-1.56-4.67-3.68-6.19-6.34-1.5-2.66-2.25-5.51-2.25-8.58V35.13c0-.65,.27-1.23,.82-1.75,.55-.52,1.19-.78,1.9-.78h6.65c.64,0,1.23,.26,1.78,.78s.82,1.12,.82,1.75v38.65c0,3.46,1.7,5.19,5.11,5.19h30.79c1.5,0,2.71-.48,3.63-1.45,.92-.97,1.37-2.25,1.37-3.87v-18.94c0-.73,.26-1.34,.77-1.88,.51-.52,1.14-.78,1.85-.78h6.54c.79,0,1.45,.26,1.96,.78,.51,.52,.77,1.15,.77,1.88v17.51c0,2.25,.38,3.94,1.14,5.06,.75,1.13,2.12,1.69,4.1,1.69h8.92c1.98,0,3.41-.6,4.29-1.8s1.3-2.98,1.3-5.32l.24-16.65c0-.89,.29-1.66,.9-2.29,.59-.65,1.32-.97,2.2-.97h5.24c.88,0,1.61,.32,2.2,.97s.9,1.41,.9,2.29v16.65c0,2.18,.42,3.94,1.25,5.32s2.09,2.05,3.74,2.05c1.74,0,3-.73,3.81-2.18,.79-1.45,1.19-3.18,1.19-5.19v-16.65c0-.89,.29-1.66,.9-2.29,.59-.65,1.32-.97,2.2-.97h5.35c.79,0,1.5,.32,2.14,.97s.95,1.41,.95,2.29v16.65c0,2.18,.4,3.94,1.19,5.32,.79,1.38,2.01,2.05,3.68,2.05s2.91-.73,3.75-2.18c.82-1.45,1.25-3.18,1.25-5.19v-16.65c0-.89,.29-1.66,.9-2.29,.59-.65,1.32-.97,2.2-.97h5.35c.79,0,1.5,.32,2.14,.97s.95,1.41,.95,2.29l.07,16.65Z"/>
            <path class="cls-2"
                  d="M390.32,51.74c-.51-.52-1.14-.78-1.85-.78h-7.02c-.71,0-1.32,.26-1.85,.78-.51,.52-.77,1.12-.77,1.75v7.24c0,.73,.26,1.34,.77,1.88,.51,.52,1.14,.78,1.85,.78h7.02c.71,0,1.32-.26,1.85-.78,.51-.52,.77-1.15,.77-1.88v-7.24c0-.65-.26-1.23-.77-1.75Zm14.56,0c-.48-.52-1.06-.78-1.78-.78h-7.14c-.64,0-1.21,.26-1.72,.78-.51,.52-.77,1.12-.77,1.75v7.24c0,.73,.26,1.34,.77,1.88,.51,.52,1.08,.78,1.72,.78h7.12c.71,0,1.3-.26,1.78-.78,.48-.52,.71-1.15,.71-1.88v-7.24c0-.65-.24-1.23-.7-1.75Z"/>
            <path class="cls-5"
                  d="M503.68,28.97l-.48-3.87v-.11c0-.32,.11-.6,.35-.84,.24-.24,.48-.35,.71-.35,1.5,0,3.15-.41,4.93-1.21s2.67-2.01,2.67-3.63h-7.12c-3.41,0-5.11-2.01-5.11-6.03v-2.66c0-2.98,.82-5.43,2.49-7.37,1.67-1.94,3.88-2.9,6.65-2.9s4.89,.97,6.59,2.9c1.7,1.94,2.56,4.39,2.56,7.37v7.59c0,2.81-.75,5.15-2.25,7-1.5,1.86-3.26,3.2-5.29,4.04-2.01,.84-3.79,1.27-5.29,1.27-.77,.02-1.25-.37-1.41-1.19Zm8.68-15.33v-3.13c0-1.36-.4-2.55-1.19-3.55-.79-1-1.59-1.51-2.38-1.51-1.19,0-2.16,.52-2.91,1.56-.75,1.04-1.14,2.21-1.14,3.5v3.14h7.62v-.02Z"/>
            <path class="cls-10"
                  d="M514.61,35.13v53.25c0,.73-.26,1.34-.77,1.88-.51,.52-1.14,.78-1.85,.78h-6.54c-.79,0-1.45-.26-1.96-.78-.51-.52-.77-1.15-.77-1.88V35.13c0-.65,.26-1.23,.77-1.75,.51-.52,1.17-.78,1.96-.78h6.54c.71,0,1.32,.26,1.85,.78,.51,.52,.77,1.12,.77,1.75Z"/>
        </g>
    </g>
    <g>
        <path class="cls-6"
              d="M256.41,75.36c-10.69-29.42-64.91,8.01-91.04,24.17-48.65,30.1-107.77,39.75-107.77,39.75,34.71,32.86,86.96,26.44,86.96,26.44,23.59,35.03,60.2,34.19,60.2,34.19-33.47-39.37-1.44-55.31,4.75-59.18,5.61-3.5,57.86-35.23,46.9-65.37Zm-59.54,68.23c-9.71,7.75-20.37,23.95,2.84,53.55,0,0-28.6-.78-53.59-35.53,0,0-44.32,9.73-81.69-19.61,14.94-2.84,55.15-9.79,100.26-35.23,29.22-16.48,76.82-50.95,85.56-26.26,7.45,21.09-38.97,51.57-53.37,63.06Z"/>
        <path class="cls-3"
              d="M252.03,58.23c-9.71-8.85-27.22-5.11-44.12,1.32-12.84,4.89-25.37,11.46-34.03,15.52-50.15,23.57-79.33,32.8-110.61,33.06-11.96,.1-23.71-2.98-34.07-8.23-10.81-5.75-14.5-12.3-15.9-15.6-7.07-16.72,9.09-41.26,35.53-55.98C90.17,5.3,131.17,4.12,163.35,8.29c17.54,2.28,33.57,6.23,45.38,10.53,6.71,2.44,15.66,6.73,19.85,9.05,.8,.44,1.28-.48,.52-.98-5.15-2.94-14.18-7.59-21.17-10.59-11.52-4.97-26.32-9.97-43.46-13.14-19.91-3.66-43-4.73-67.85,0-18.22,3.46-37.77,9.47-56.98,21.03C22.16,34.7,10.16,47.52,4.2,60.74c-.36,.78-.68,1.56-1,2.34-.04,.08-.06,.14-.08,.22C.75,69.33-.29,75.28,.07,80.78c.2,2.96,.8,5.79,1.82,8.43,1.46,3.77,5.31,11.24,16.64,17.8,10.83,5.97,23.15,9.09,35.67,9.39,21.23,.5,57.82-3.75,110.33-30.66,10.15-5.21,26.78-15.42,43.4-22.69,7.77-3.4,32.52-13.92,43.6-4.15,1.6,1.5,2.1,.78,.5-.68Z"/>
    </g>
</svg>