<svg xmlns="http://www.w3.org/2000/svg" id="Layer_1" x="0px" y="0px" viewBox="0 0 3650 1000"
     style="enable-background:new 0 0 3650 1000;" xml:space="preserve"> <style type="text/css"> .st0{fill:#808080;} .st1{fill:url(#SVGID_1_);} .st2{fill:url(#SVGID_2_);} .st3{fill:url(#SVGID_3_);} .st4{fill:url(#SVGID_4_);} .st5{fill:url(#SVGID_5_);} .st6{fill:url(#SVGID_6_);} .st7{fill:url(#SVGID_7_);} .st8{fill:url(#SVGID_8_);} .st9{fill:#662D91;} .st10{fill:url(#SVGID_9_);} .st11{fill:url(#SVGID_10_);} </style>
    <g> <path class="st0"
              d="M47.6,921.7C33.6,916,24.1,905.4,19,890c-5.1-15.4-7.7-39.3-7.7-71.9c0-39.3,2.4-67.4,7.3-84.4 c4.8-17,14.5-28.4,29-34.3c14.5-5.9,38.6-8.8,72.3-8.8c29.6,0,51.4,2.9,65.3,8.8c13.9,5.9,23.4,16.7,28.4,32.5 c5,15.8,7.5,40.9,7.5,75.2c0,37.8-2.5,65-7.5,81.5c-5,16.6-14.7,27.6-29,33.2c-14.4,5.6-38.2,8.4-71.7,8.4 C83.2,930.3,61.5,927.4,47.6,921.7z M158.6,887.6c7.3-2.9,12-9.5,14.1-19.8c2-10.3,3.1-29.6,3.1-58c0-28.7-1-48.1-2.9-58 c-1.9-10-6.4-16.3-13.6-18.9c-7.2-2.6-21.3-4-42.4-4c-22.3,0-37,1.4-44.2,4.2c-7.2,2.8-11.6,9.6-13.4,20.4 c-1.8,10.8-2.6,33.3-2.6,67.3c0,24.3,1.1,41,3.3,49.9c2.2,8.9,7.2,14.7,14.9,17.4c7.8,2.6,22,4,42.9,4 C137.6,892,151.2,890.6,158.6,887.6z"></path>
        <path class="st0"
              d="M271.5,925.9c-10.5-2.9-18-8-22.4-15.2c-4.4-7.2-6.6-17.2-6.6-30.1v-4.4h40.9l-0.9,5.7 c-1.8,14.7,9.5,22,33.8,22c24.9,0,37.4-7.3,37.4-22c0-13.8-7.8-20.7-23.3-20.7c-24.3,0-42.5-1.4-54.5-4.2 c-12-2.8-20.4-7.8-25.1-14.9c-4.7-7.2-7-18.1-7-32.7c0-12.6,2.2-22.3,6.6-29.2c4.4-6.9,11.9-11.7,22.4-14.5 c10.6-2.8,25.6-4.2,45.3-4.2c18.8,0,33,1.3,42.9,4c9.8,2.6,16.7,7.3,20.7,14.1c4,6.7,5.9,16.6,5.9,29.5h-38.7l-0.4-3.5 c-0.6-5.6-1.7-9.5-3.3-11.9c-1.6-2.3-4.5-3.9-8.8-4.6c-4.3-0.7-11.5-1.1-21.8-1.1c-20.5,0-30.8,6.7-30.8,20.2 c0,9.1,1.8,14.4,5.3,15.8c3.2,1.5,15.5,2.9,36.9,4.4c19.3,0.9,33.7,2.7,43.1,5.5c9.4,2.8,15.8,7.4,19.3,13.8 c3.5,6.4,5.3,16.1,5.3,29c0,13.8-2.4,24.5-7.3,32.1c-4.8,7.6-12.8,13.1-24,16.5c-11.1,3.4-26.7,5.1-46.6,5.1 C296.9,930.3,282.1,928.8,271.5,925.9z"></path>
        <path class="st0"
              d="M428,881.9v-88.4h-21.1v-30.3H428v-36.9h39.6v36.9h63.3v30.3h-63.3v82.6c0,15.2,5.9,22.9,17.6,22.9 c12.6,0,18.9-9.2,18.9-27.7v-6.6h33.8v8.4c0,5.9-0.3,12.3-0.9,19.3c-2.3,25.2-21.1,37.8-56.3,37.8S428,914.1,428,881.9z"></path>
        <path class="st0"
              d="M553.8,875.8c0-34.3,20.4-51.4,61.1-51.4c27,0,43.5,6.3,49.7,18.9h0.4v-26.8c0-8.8-1-15.4-2.9-19.8 c-1.9-4.4-5.2-7.5-9.9-9.2c-4.7-1.8-11.9-2.6-21.5-2.6c-19.9,0-29.9,7.6-29.9,22.9h-40.4c0-13.5,2-23.7,5.9-30.8 c4-7,10.7-11.9,20.2-14.7c9.5-2.8,23.7-4.2,42.4-4.2c19.9,0,35.3,1.8,46.2,5.3c10.8,3.5,18.5,9.5,22.9,17.8 c4.4,8.4,6.6,20.4,6.6,36.3V925H665l2.2-22.9h-1.3c-7.6,16.4-25.1,24.6-52.3,24.6C573.7,926.7,553.8,909.8,553.8,875.8z M665.4,875.8c0-16.4-12.7-24.6-38.2-24.6c-22.3,0-33.4,7.6-33.4,22.9c0,7.3,0.9,12.8,2.9,16.5c1.9,3.7,5.3,6.2,10.1,7.7 c4.8,1.5,12.4,2.2,22.6,2.2C653.4,900.4,665.4,892.2,665.4,875.8z"></path>
        <path class="st0"
              d="M762.1,919.7c-9.1-5-15.4-13.8-18.9-26.4c-3.5-12.6-5.3-31.4-5.3-56.3c0-19.9,2-35.5,5.9-46.8 c4-11.3,10.4-19.4,19.3-24.4c8.9-5,21.2-7.5,36.7-7.5c27.3,0,44.1,8.5,50.6,25.5h0.4v-94.1h39.6V925h-38.2l1.3-26.4h-0.9 c-7.6,19.1-24.3,28.6-50.1,28.6C784.7,927.2,771.2,924.7,762.1,919.7z M838.2,891.8c5-2.8,8.4-8.1,10.1-15.8 c1.8-7.8,2.6-20.1,2.6-37.1c0-13.8-1-24.1-3.1-31c-2.1-6.9-5.7-11.6-11-14.3c-5.3-2.6-13.2-4-23.7-4c-10.3,0-17.8,1.3-22.6,4 c-4.8,2.6-8.1,7.3-9.9,14.1c-1.8,6.7-2.6,17.3-2.6,31.6c0,16.7,0.9,28.9,2.6,36.7c1.8,7.8,5.1,13,10.1,15.8 c5,2.8,12.7,4.2,23.3,4.2C825.1,896,833.2,894.6,838.2,891.8z"></path>
        <path class="st0"
              d="M952.3,919.7c-11-4.7-18.5-13-22.6-25.1c-4.1-12-6.2-30.5-6.2-55.4c0-22,2.2-38.7,6.6-50.1 c4.4-11.4,12.1-19.5,23.1-24.2c11-4.7,26.9-7,47.7-7c20.2,0,35.5,2.3,45.9,6.8c10.4,4.5,17.7,12.5,22,23.7 c4.2,11.3,6.4,27.6,6.4,49v11.9H963.5v7.5c0,11.1,1,19.6,3.1,25.3c2,5.7,5.7,9.7,11,11.9c5.3,2.2,13,3.3,23.3,3.3 c10,0,17.4-0.7,22.2-2c4.8-1.3,8.1-3.7,9.9-7.3c1.8-3.5,2.6-8.8,2.6-15.8h39.6v6.2c0,32.2-24.2,48.4-72.5,48.4 C980,926.7,963.2,924.4,952.3,919.7z M1036,825.2l-0.4-6.2c-0.6-9.4-1.8-16.2-3.5-20.4c-1.8-4.2-5.1-7.2-9.9-8.8 c-4.8-1.6-12.4-2.4-22.6-2.4c-10.3,0-17.8,1-22.6,2.9c-4.8,1.9-8.2,5.5-10.1,10.8c-1.9,5.3-2.9,13.3-2.9,24.2H1036z"></path> </g>
    <g> <path class="st0"
              d="M1153.4,689.8h73l41.8,109c2,4.7,4.7,12,7.9,22l3.5,10.6l5.3,16.3l5.3,16.3h1.8l4.8-16.3l5.3-16.3 c3.2-11.1,6.9-22,11-32.5l41.3-109h74.3V925h-44.8V796.6c0-5.6,0.3-17.1,0.9-34.7l0.9-17.6l0.9-17.6h-1.3l-5.3,16.7l-5.3,16.3 c-2.1,6.2-3.2,9.8-3.5,11l-7.5,21.5L1311.6,925h-40.4l-52.3-131.9c-1.8-3.8-5.6-14.7-11.4-32.5l-5.3-16.3l-5.7-16.3h-1.3l0.9,17.1 l0.9,17.1c0.9,13.5,1.3,24.9,1.3,34.3V925h-44.8V689.8z"></path>
        <path class="st0"
              d="M1462.8,875.8c0-34.3,20.4-51.4,61.1-51.4c27,0,43.5,6.3,49.7,18.9h0.4v-26.8c0-8.8-1-15.4-2.9-19.8 c-1.9-4.4-5.2-7.5-9.9-9.2c-4.7-1.8-11.9-2.6-21.5-2.6c-19.9,0-29.9,7.6-29.9,22.9h-40.4c0-13.5,2-23.7,5.9-30.8 c4-7,10.7-11.9,20.2-14.7c9.5-2.8,23.7-4.2,42.4-4.2c19.9,0,35.3,1.8,46.2,5.3c10.8,3.5,18.5,9.5,22.9,17.8 c4.4,8.4,6.6,20.4,6.6,36.3V925h-39.6l2.2-22.9h-1.3c-7.6,16.4-25.1,24.6-52.3,24.6C1482.8,926.7,1462.8,909.8,1462.8,875.8z M1574.5,875.8c0-16.4-12.7-24.6-38.2-24.6c-22.3,0-33.4,7.6-33.4,22.9c0,7.3,0.9,12.8,2.9,16.5c1.9,3.7,5.3,6.2,10.1,7.7 c4.8,1.5,12.4,2.2,22.6,2.2C1562.5,900.4,1574.5,892.2,1574.5,875.8z"></path>
        <path class="st0"
              d="M1679.8,993.6c-10.1-3.2-17.1-8.8-21.1-16.7c-4-7.9-5.9-19.5-5.9-34.7h38.2c0,7.3,0.8,12.7,2.4,16 c1.6,3.4,4.7,5.7,9.2,7c4.5,1.3,11.6,2,21.3,2c24.6,0,36.9-10.1,36.9-30.3v-36.9l-0.9-0.4c-7,17.6-23.2,26.4-48.4,26.4 c-17,0-30-2.6-39.1-7.7c-9.1-5.1-15.6-13.8-19.6-26.2s-5.9-29.6-5.9-51.9c0-21.1,2-37.5,5.9-49.2c4-11.7,10.5-20.1,19.6-25.1 c9.1-5,21.7-7.5,37.8-7.5c26.4,0,43.5,9.7,51.4,29h0.9l-1.8-27.3h39.6v167.9c0,18.2-2.3,32.3-7,42.4c-4.7,10.1-12.5,17.3-23.3,21.5 c-10.8,4.2-26.2,6.4-46.2,6.4C1704.6,998.4,1689.9,996.8,1679.8,993.6z M1746.8,890.7c5-2.6,8.4-7.6,10.3-14.9 c1.9-7.3,2.9-18.9,2.9-34.7c0-15.2-1-26.3-2.9-33.2s-5.4-11.6-10.5-14.3c-5.1-2.6-13.1-4-24-4c-10.6,0-18.2,1.2-23.1,3.7 c-4.8,2.5-8.1,7.2-9.9,14.1c-1.8,6.9-2.6,18-2.6,33.2c0,16.4,0.9,28.2,2.6,35.4c1.8,7.2,5.1,12.1,9.9,14.7s12.7,4,23.5,4 C1733.9,894.7,1741.8,893.3,1746.8,890.7z"></path>
        <path class="st0"
              d="M1839.6,689.8h39.6v97.6h0.9c7.6-19.3,24.5-29,50.6-29c38.7,0,58,18.2,58,54.5V925H1949V823.9v-5.3 c0-19.3-9.8-29-29.5-29c-27,0-40.4,13.9-40.4,41.8V925h-39.6V689.8z"></path>
        <path class="st0" d="M2014.1,890.3l87.5-100.2h-80.4v-29.9h128.4V794l-87.9,101.1h87.9V925h-135.4V890.3z"></path> </g>
    <g> <linearGradient id="SVGID_1_" gradientUnits="userSpaceOnUse" x1="102.21" y1="228.7449" x2="168.4" y2="228.7449"> <stop
            offset="0" style="stop-color:#662D91"></stop>
        <stop offset="0.3833" style="stop-color:#602D91"></stop>
        <stop offset="0.8839" style="stop-color:#502D91"></stop>
        <stop offset="1" style="stop-color:#4B2D91"></stop> </linearGradient>
        <path class="st1"
              d="M164.5,199.5c-2.6-2.8-5.8-4.2-9.7-4.2h-38.9c-3.9,0-7.1,1.4-9.7,4.2c-2.6,2.8-3.9,6.2-3.9,10.1v38.9 c0,3.5,1.3,6.6,3.9,9.4c2.6,2.8,5.8,4.2,9.7,4.2h38.9c3.9,0,7.1-1.4,9.7-4.2c2.6-2.8,3.9-5.9,3.9-9.4v-38.9 C168.4,205.7,167.1,202.4,164.5,199.5z"></path>
        <linearGradient id="SVGID_2_" gradientUnits="userSpaceOnUse" x1="10.06" y1="446.465" x2="810.2" y2="446.465"> <stop
                offset="0" style="stop-color:#662D91"></stop>
            <stop offset="0.3833" style="stop-color:#602D91"></stop>
            <stop offset="0.8839" style="stop-color:#502D91"></stop>
            <stop offset="1" style="stop-color:#4B2D91"></stop> </linearGradient>
        <path class="st2"
              d="M800.5,357.9c-6.5-14.1-16.2-26.7-29.2-38L736.9,292c-11.3-9.9-23.4-14.9-36.3-14.9c-18.2,0-35.3,10-51.3,29.8 l-85,103.8c-7.8,9.1-18.8,13.6-33.1,13.6h-72c-29.8,0-44.8-14.3-44.8-42.8c0-13.8,3.2-23.5,9.7-28.9c6.5-5.4,16.6-8.1,30.5-8.1 h24.7c3.5,0,6.5-1.5,9.1-4.5c2.6-3,3.9-6.5,3.9-10.4V294c0-3.9-1.4-7.2-4.2-10.1c-2.8-2.8-6.2-4.2-10.1-4.2H280.7 c-3.9,0-7.2,1.4-10.1,4.2c-2.8,2.8-4.2,6.2-4.2,10.1v35.7c0,3.9,1.2,7.4,3.6,10.4c2.4,3,5.3,4.5,8.8,4.5h24.7 c13.8,0,24,2.7,30.5,8.1c6.5,5.4,9.7,15.2,9.7,29.5c0,28.1-14.7,42.2-44.1,42.2h-95.4c-23.4,0-35-12.8-35-38.3v-74.6 c0-3.9-1.2-7.2-3.6-10.1c-2.4-2.8-5.5-4.2-9.4-4.2h-38.9c-3.5,0.4-6.4,1.9-8.8,4.5c-2.4,2.6-3.6,5.8-3.6,9.7v177.8 c0,17.3-8.5,32-25.6,44.1c-17.1,12.1-38.8,18.4-65.2,18.8c-2.6,0-3.9,1.1-3.9,3.2v1.3l7.1,54.5c0,1.3,0.5,2.4,1.6,3.2 c1.1,0.9,2.3,1.3,3.6,1.3c29,0,54.6-5.7,76.9-17.2c22.3-11.5,39.5-27.1,51.6-46.7c12.1-19.7,18.2-41.9,18.2-66.5 c10.4,2.6,22.1,3.9,35,3.9h95.4c18.2,0,33.5-1.5,46.1-4.5c12.5-3,23.8-10.4,33.8-22.1c9.5,11.7,20.7,19,33.4,22.1 c12.8,3,28.2,4.5,46.4,4.5h72c22.1,0,38.4-1.6,49-4.9c10.6-3.2,20.6-9,30.2-17.2l21.4,18.2c19.5,17.7,42.4,26.6,68.8,26.6 c15.6,0,30.6-3.5,45.1-10.4c14.5-6.9,27.1-16.9,38-29.8c17.7-21.6,26.6-45,26.6-70.1C810.2,386.6,807,371.9,800.5,357.9z M733.6,430.2c-10,10.8-21,16.2-33.1,16.2c-10,0-18.6-3.4-26-10.4l-29.9-25.3l54.5-64.9l30.5,24.7c9.5,8.2,14.3,18.8,14.3,31.8 C744,413.6,740.5,422.9,733.6,430.2z"></path>
        <linearGradient id="SVGID_3_" gradientUnits="userSpaceOnUse" x1="346.21" y1="228.7449" x2="412.4" y2="228.7449"> <stop
                offset="0" style="stop-color:#662D91"></stop>
            <stop offset="0.3833" style="stop-color:#602D91"></stop>
            <stop offset="0.8839" style="stop-color:#502D91"></stop>
            <stop offset="1" style="stop-color:#4B2D91"></stop> </linearGradient>
        <path class="st3"
              d="M408.5,199.5c-2.6-2.8-5.8-4.2-9.7-4.2h-38.9c-3.9,0-7.1,1.4-9.7,4.2c-2.6,2.8-3.9,6.2-3.9,10.1v38.9 c0,3.5,1.3,6.6,3.9,9.4c2.6,2.8,5.8,4.2,9.7,4.2h38.9c3.9,0,7.1-1.4,9.7-4.2c2.6-2.8,3.9-5.9,3.9-9.4v-38.9 C412.4,205.7,411.1,202.4,408.5,199.5z"></path> </g>
    <g> <linearGradient id="SVGID_4_" gradientUnits="userSpaceOnUse" x1="924.4" y1="355.285" x2="1172.29" y2="355.285"> <stop
            offset="0" style="stop-color:#662D91"></stop>
        <stop offset="0.3833" style="stop-color:#602D91"></stop>
        <stop offset="0.8839" style="stop-color:#502D91"></stop>
        <stop offset="1" style="stop-color:#4B2D91"></stop> </linearGradient>
        <path class="st4"
              d="M1172.3,381.6c0,6.5-0.2,11.5-0.7,14.9c-1.3,14.3-6.8,28.7-16.5,43.1c-9.7,14.5-22.4,26.4-38,35.7 c-15.6,9.3-31.8,14-48.7,14h-49.3c-17.8,0-33.2-3-46.4-9.1c-13.2-6.1-27.6-15.8-43.2-29.2c-3.5-3.5-5.2-7.1-5.2-11 c0-3.4,1.1-6.3,3.2-8.4l22.1-26.6c3.5-3.5,7.1-5.2,11-5.2s7.1,1.3,9.7,3.9c9.1,7.4,16.9,12.7,23.4,15.9c6.5,3.2,14.9,4.9,25.3,4.9 h44.1c13.4,0,24.3-4.3,32.8-13c8.4-8.6,12.7-18.8,12.7-30.5c0-9.1-2.6-17.1-7.8-24l-64.2-92.1c-1.7-2.2-2.6-5-2.6-8.4 c0-5.2,1.9-9.1,5.8-11.7l29.2-20.8c2.2-1.7,4.8-2.6,7.8-2.6c5.2,0,9.3,2.2,12.3,6.5l47.4,68.1c13.8,20.3,23.2,36.2,28.2,47.7 C1169.8,355.1,1172.3,367.7,1172.3,381.6z"></path>
        <linearGradient id="SVGID_5_" gradientUnits="userSpaceOnUse" x1="1237.8301" y1="332.25" x2="1997.72"
                        y2="332.25"> <stop offset="0" style="stop-color:#662D91"></stop>
            <stop offset="0.3833" style="stop-color:#602D91"></stop>
            <stop offset="0.8839" style="stop-color:#502D91"></stop>
            <stop offset="1" style="stop-color:#4B2D91"></stop> </linearGradient>
        <path class="st5"
              d="M1997.7,386.1c0,19-3.7,36.6-11,52.6c-7.4,16-18.2,28.6-32.4,37.6c-13.4,8.6-29.2,13-47.4,13 c-10.8,0-21.4-1.9-31.8-5.8c-10.4-3.9-19.2-9.1-26.6-15.6c-6.9,6.5-15.8,11.7-26.6,15.6c-10.8,3.9-21.4,5.8-31.8,5.8 c-11.2,0-22.1-1.9-32.4-5.8c-10.4-3.9-19.3-9.3-26.6-16.2c-7.8,7.4-17.2,12.9-28.2,16.5c-11,3.7-22.4,5.5-34.1,5.5h-48.7 c-11.7,0-22.2-1.7-31.5-5.2c-9.3-3.5-18.7-8.9-28.2-16.2c-10,7.8-19.4,13.3-28.2,16.6c-8.9,3.2-19.8,4.9-32.8,4.9h-168.1 c-17.3,0-33.1-4.2-47.4-12.7c-14.3-8.4-25.5-19.8-33.8-34.1c-8.2-14.3-12.3-29.6-12.3-46.1V188.8c0-3.5,1.5-6.6,4.5-9.4 c3-2.8,6.5-4.2,10.4-4.2h36.3c3.5,0,6.7,1.4,9.7,4.2c3,2.8,4.5,6,4.5,9.4v207.7c0,18.6,9.3,27.9,27.9,27.9h168.1 c8.2,0,14.8-2.6,19.8-7.8c5-5.2,7.5-12.1,7.5-20.8V294c0-3.9,1.4-7.2,4.2-10.1c2.8-2.8,6.2-4.2,10.1-4.2h35.7 c4.3,0,7.9,1.4,10.7,4.2c2.8,2.8,4.2,6.2,4.2,10.1v94.1c0,12.1,2.1,21.2,6.2,27.2c4.1,6.1,11.6,9.1,22.4,9.1h48.7 c10.8,0,18.6-3.2,23.4-9.7c4.8-6.5,7.1-16,7.1-28.6l1.3-89.5c0-4.8,1.6-8.9,4.9-12.3c3.2-3.5,7.2-5.2,12-5.2h28.6 c4.8,0,8.8,1.7,12,5.2c3.2,3.5,4.9,7.6,4.9,12.3v89.5c0,11.7,2.3,21.2,6.8,28.6c4.5,7.4,11.4,11,20.4,11c9.5,0,16.4-3.9,20.8-11.7 c4.3-7.8,6.5-17.1,6.5-27.9v-89.5c0-4.8,1.6-8.9,4.9-12.3c3.2-3.5,7.2-5.2,12-5.2h29.2c4.3,0,8.2,1.7,11.7,5.2 c3.5,3.5,5.2,7.6,5.2,12.3v89.5c0,11.7,2.2,21.2,6.5,28.6c4.3,7.4,11,11,20.1,11c9.1,0,15.9-3.9,20.5-11.7 c4.5-7.8,6.8-17.1,6.8-27.9v-89.5c0-4.8,1.6-8.9,4.9-12.3c3.2-3.5,7.2-5.2,12-5.2h29.2c4.3,0,8.2,1.7,11.7,5.2 c3.5,3.5,5.2,7.6,5.2,12.3L1997.7,386.1z"></path>
        <linearGradient id="SVGID_6_" gradientUnits="userSpaceOnUse" x1="1358.53" y1="307.27" x2="1504.54" y2="307.27"> <stop
                offset="0" style="stop-color:#662D91"></stop>
            <stop offset="0.3833" style="stop-color:#602D91"></stop>
            <stop offset="0.8839" style="stop-color:#502D91"></stop>
            <stop offset="1" style="stop-color:#4B2D91"></stop> </linearGradient>
        <path class="st6"
              d="M1421.2,278.1c-2.8-2.8-6.2-4.2-10.1-4.2h-38.3c-3.9,0-7.2,1.4-10.1,4.2c-2.8,2.8-4.2,6-4.2,9.4v38.9 c0,3.9,1.4,7.2,4.2,10.1c2.8,2.8,6.2,4.2,10.1,4.2h38.3c3.9,0,7.2-1.4,10.1-4.2c2.8-2.8,4.2-6.2,4.2-10.1v-38.9 C1425.4,284,1424,280.9,1421.2,278.1z M1500.7,278.1c-2.6-2.8-5.8-4.2-9.7-4.2H1452c-3.5,0-6.6,1.4-9.4,4.2c-2.8,2.8-4.2,6-4.2,9.4 v38.9c0,3.9,1.4,7.2,4.2,10.1c2.8,2.8,5.9,4.2,9.4,4.2h38.9c3.9,0,7.1-1.4,9.7-4.2c2.6-2.8,3.9-6.2,3.9-10.1v-38.9 C1504.5,284,1503.2,280.9,1500.7,278.1z"></path>
        <linearGradient id="SVGID_7_" gradientUnits="userSpaceOnUse" x1="2045.7312" y1="81.1166" x2="2145.6719"
                        y2="81.1166"> <stop offset="0" style="stop-color:#662D91"></stop>
            <stop offset="0.3833" style="stop-color:#602D91"></stop>
            <stop offset="0.8839" style="stop-color:#502D91"></stop>
            <stop offset="1" style="stop-color:#4B2D91"></stop> </linearGradient>
        <path class="st7"
              d="M2067.8,155.7l-2.6-20.8v-0.6c0-1.7,0.6-3.2,1.9-4.5c1.3-1.3,2.6-1.9,3.9-1.9c8.2,0,17.2-2.2,26.9-6.5 c9.7-4.3,14.6-10.8,14.6-19.5h-38.9c-18.6,0-27.9-10.8-27.9-32.4V55.2c0-16,4.5-29.2,13.6-39.6c9.1-10.4,21.2-15.6,36.3-15.6 c14.7,0,26.7,5.2,36,15.6c9.3,10.4,14,23.6,14,39.6V96c0,15.1-4.1,27.7-12.3,37.6c-8.2,10-17.8,17.2-28.9,21.7 c-11,4.5-20.7,6.8-28.9,6.8C2071.3,162.2,2068.7,160.1,2067.8,155.7z M2115.2,73.3V56.5c0-7.3-2.2-13.7-6.5-19.1 c-4.3-5.4-8.7-8.1-13-8.1c-6.5,0-11.8,2.8-15.9,8.4c-4.1,5.6-6.2,11.9-6.2,18.8v16.9H2115.2z"></path>
        <linearGradient id="SVGID_8_" gradientUnits="userSpaceOnUse" x1="2062.6099" y1="332.25" x2="2127.51"
                        y2="332.25"> <stop offset="0" style="stop-color:#662D91"></stop>
            <stop offset="0.3833" style="stop-color:#602D91"></stop>
            <stop offset="0.8839" style="stop-color:#502D91"></stop>
            <stop offset="1" style="stop-color:#4B2D91"></stop> </linearGradient>
        <path class="st8"
              d="M2127.5,188.8V475c0,3.9-1.4,7.2-4.2,10.1c-2.8,2.8-6.2,4.2-10.1,4.2h-35.7c-4.3,0-7.9-1.4-10.7-4.2 c-2.8-2.8-4.2-6.2-4.2-10.1V188.8c0-3.5,1.4-6.6,4.2-9.4c2.8-2.8,6.4-4.2,10.7-4.2h35.7c3.9,0,7.2,1.4,10.1,4.2 C2126.1,182.2,2127.5,185.4,2127.5,188.8z"></path> </g>
    <path class="st9" d="M3502.9,141.8"></path>
    <linearGradient id="SVGID_9_" gradientUnits="userSpaceOnUse" x1="2645.6567" y1="659.7053" x2="3645.9375"
                    y2="659.7053"> <stop offset="0" style="stop-color:#662D91"></stop>
        <stop offset="0.3833" style="stop-color:#602D91"></stop>
        <stop offset="0.8839" style="stop-color:#502D91"></stop>
        <stop offset="1" style="stop-color:#4B2D91"></stop> </linearGradient>
    <path class="st10"
          d="M3638.4,376.1c-53.4-146.9-324.1,40-454.6,120.7c-242.9,150.3-538.1,198.5-538.1,198.5 c173.3,164.1,434.2,132,434.2,132c117.8,174.9,300.6,170.7,300.6,170.7c-167.1-196.6-7.2-276.2,23.7-295.5 C3432.2,685,3693.1,526.6,3638.4,376.1z M3341.1,716.8c-48.5,38.7-101.7,119.6,14.2,267.4c0,0-142.8-3.9-267.6-177.4 c0,0-221.3,48.6-407.9-97.9c74.6-14.2,275.4-48.9,500.6-175.9c145.9-82.3,383.6-254.4,427.2-131.1 C3644.8,507.2,3413,659.4,3341.1,716.8z"></path>
    <linearGradient id="SVGID_10_" gradientUnits="userSpaceOnUse" x1="2358.0017" y1="290.7587" x2="3621.3879"
                    y2="290.7587"> <stop offset="0" style="stop-color:#662D91"></stop>
        <stop offset="0.3833" style="stop-color:#602D91"></stop>
        <stop offset="0.8839" style="stop-color:#502D91"></stop>
        <stop offset="1" style="stop-color:#4B2D91"></stop> </linearGradient>
    <path class="st11"
          d="M3616.5,290.6c-48.5-44.2-135.9-25.5-220.3,6.6c-64.1,24.4-126.7,57.2-169.9,77.5 c-250.4,117.7-396.1,163.8-552.3,165.1c-59.7,0.5-118.4-14.9-170.1-41.1c-54-28.7-72.4-61.4-79.4-77.9 c-35.3-83.5,45.4-206,177.4-279.5c206.4-115,411.1-120.9,571.8-100.1c87.6,11.4,167.6,31.1,226.6,52.6 c33.5,12.2,78.2,33.6,99.1,45.2c4,2.2,6.4-2.4,2.6-4.9c-25.7-14.7-70.8-37.9-105.7-52.9c-57.5-24.8-131.4-49.8-217-65.6 c-99.4-18.3-214.7-23.6-338.8,0c-91,17.3-188.6,47.3-284.5,105c-87.3,52.5-147.2,116.5-177,182.5c-1.8,3.9-3.4,7.8-5,11.7 c-0.2,0.4-0.3,0.7-0.4,1.1c-11.8,30.1-17,59.8-15.2,87.3c1,14.8,4,28.9,9.1,42.1c7.3,18.8,26.5,56.1,83.1,88.9 c54.1,29.8,115.6,45.4,178.1,46.9c106,2.5,288.7-18.7,550.9-153.1c50.7-26,133.7-77,216.7-113.3c38.8-17,162.4-69.5,217.7-20.7 C3622,301.5,3624.5,297.9,3616.5,290.6z"></path> </svg>